<svg xmlns="http://www.w3.org/2000/svg" viewBox="0 0 320 140" role="img" aria-label="American Air Flow flag mark">
  <defs>
    <linearGradient id="swirl" x1="0%" y1="50%" x2="100%" y2="50%">
      <stop offset="0%" stop-color="#d31236" />
      <stop offset="70%" stop-color="#4db1ff" />
      <stop offset="100%" stop-color="#8fd0ff" />
    </linearGradient>
  </defs>
  <rect width="320" height="140" fill="none" />
  <path d="M5 60c60 44 140 48 200 12" fill="none" stroke="#d31236" stroke-width="16" stroke-linecap="round" />
  <path d="M5 40c60 44 140 48 200 12" fill="none" stroke="#ffffff" stroke-width="16" stroke-linecap="round" />
  <path d="M5 20c60 44 140 48 200 12" fill="none" stroke="#d31236" stroke-width="16" stroke-linecap="round" />
  <path d="M5 0c60 44 140 48 200 12" fill="none" stroke="#ffffff" stroke-width="16" stroke-linecap="round" />
  <path d="M120 96c48 18 108 6 176-42" fill="none" stroke="url(#swirl)" stroke-width="18" stroke-linecap="round" />
  <path d="M215 70c32 10 62 32 95 24" fill="none" stroke="#4db1ff" stroke-width="14" stroke-linecap="round" />
  <path d="M14 0h80c4 0 8 3 8 8v72c0 4-3 8-8 8H6c-4 0-8-3-8-8V16z" fill="#012043" />
  <g fill="#ffffff" transform="translate(20 12) scale(1.1)">
    <polygon points="8,0 9.8,5.4 15.6,5.4 10.8,8.6 12.6,14 8,10.7 3.4,14 5.2,8.6 0.4,5.4 6.2,5.4" />
    <polygon points="22,0 23.8,5.4 29.6,5.4 24.8,8.6 26.6,14 22,10.7 17.4,14 19.2,8.6 14.4,5.4 20.2,5.4" />
    <polygon points="36,0 37.8,5.4 43.6,5.4 38.8,8.6 40.6,14 36,10.7 31.4,14 33.2,8.6 28.4,5.4 34.2,5.4" />
    <polygon points="50,0 51.8,5.4 57.6,5.4 52.8,8.6 54.6,14 50,10.7 45.4,14 47.2,8.6 42.4,5.4 48.2,5.4" />
    <polygon points="8,14 9.8,19.4 15.6,19.4 10.8,22.6 12.6,28 8,24.7 3.4,28 5.2,22.6 0.4,19.4 6.2,19.4" />
    <polygon points="22,14 23.8,19.4 29.6,19.4 24.8,22.6 26.6,28 22,24.7 17.4,28 19.2,22.6 14.4,19.4 20.2,19.4" />
    <polygon points="36,14 37.8,19.4 43.6,19.4 38.8,22.6 40.6,28 36,24.7 31.4,28 33.2,22.6 28.4,19.4 34.2,19.4" />
    <polygon points="50,14 51.8,19.4 57.6,19.4 52.8,22.6 54.6,28 50,24.7 45.4,28 47.2,22.6 42.4,19.4 48.2,19.4" />
    <polygon points="8,28 9.8,33.4 15.6,33.4 10.8,36.6 12.6,42 8,38.7 3.4,42 5.2,36.6 0.4,33.4 6.2,33.4" />
    <polygon points="22,28 23.8,33.4 29.6,33.4 24.8,36.6 26.6,42 22,38.7 17.4,42 19.2,36.6 14.4,33.4 20.2,33.4" />
    <polygon points="36,28 37.8,33.4 43.6,33.4 38.8,36.6 40.6,42 36,38.7 31.4,42 33.2,36.6 28.4,33.4 34.2,33.4" />
    <polygon points="50,28 51.8,33.4 57.6,33.4 52.8,36.6 54.6,42 50,38.7 45.4,42 47.2,36.6 42.4,33.4 48.2,33.4" />
  </g>
</svg>
